<svg xmlns="http://www.w3.org/2000/svg" xmlns:xlink="http://www.w3.org/1999/xlink" width="1920" zoomAndPan="magnify" viewBox="0 0 1440 809.999993" height="1080" preserveAspectRatio="xMidYMid meet" version="1.0"><defs><filter x="0%" y="0%" width="100%" height="100%" id="032cb7d82f"><feColorMatrix values="0 0 0 0 1 0 0 0 0 1 0 0 0 0 1 0 0 0 1 0" color-interpolation-filters="sRGB"/></filter><mask id="aefc702ebe"><g filter="url(#032cb7d82f)"><rect x="-144" width="1728" fill="#000000" y="-80.999999" height="971.999992" fill-opacity="0.61"/></g></mask><clipPath id="5b7747dcda"><path d="M 152 1 L 257 1 L 257 308.238281 L 152 308.238281 Z M 152 1 " clip-rule="nonzero"/></clipPath><clipPath id="49c6dcc5e4"><rect x="0" width="258" y="0" height="309"/></clipPath><mask id="1997b9b942"><g filter="url(#032cb7d82f)"><rect x="-144" width="1728" fill="#000000" y="-80.999999" height="971.999992" fill-opacity="0.61"/></g></mask><clipPath id="f8bf3372ef"><path d="M 1 0.28125 L 106 0.28125 L 106 307.71875 L 1 307.71875 Z M 1 0.28125 " clip-rule="nonzero"/></clipPath><clipPath id="5b75442dec"><rect x="0" width="258" y="0" height="308"/></clipPath><mask id="81068355ef"><g filter="url(#032cb7d82f)"><rect x="-144" width="1728" fill="#000000" y="-80.999999" height="971.999992" fill-opacity="0.61"/></g></mask><clipPath id="6efdcf90c9"><path d="M 62 0.558594 L 104 0.558594 L 104 124.160156 L 62 124.160156 Z M 62 0.558594 " clip-rule="nonzero"/></clipPath><clipPath id="937638fc71"><rect x="0" width="105" y="0" height="125"/></clipPath><clipPath id="3372c9df5d"><path d="M 360.101562 618 L 418 618 L 418 694 L 360.101562 694 Z M 360.101562 618 " clip-rule="nonzero"/></clipPath><mask id="c832b6405f"><g filter="url(#032cb7d82f)"><rect x="-144" width="1728" fill="#000000" y="-80.999999" height="971.999992" fill-opacity="0.61"/></g></mask><clipPath id="ebda6c03e9"><path d="M 0.199219 0.078125 L 35 0.078125 L 35 101.839844 L 0.199219 101.839844 Z M 0.199219 0.078125 " clip-rule="nonzero"/></clipPath><clipPath id="f7a8b9e393"><rect x="0" width="86" y="0" height="102"/></clipPath></defs><rect x="-144" width="1728" fill="#ffffff" y="-80.999999" height="971.999992" fill-opacity="1"/><rect x="-144" width="1728" fill="#1cd2ae" y="-80.999999" height="971.999992" fill-opacity="1"/><g mask="url(#aefc702ebe)"><g transform="matrix(1, 0, 0, 1, 82, 82)"><g clip-path="url(#49c6dcc5e4)"><path fill="#000000" d="M 103.453125 100.832031 C 105.109375 102.730469 106.886719 104.511719 108.726562 106.226562 M 108.726562 106.226562 C 116.695312 113.828125 126.136719 120.082031 136.621094 124.679688 C 144.898438 128.296875 141.894531 140.988281 134.230469 143.070312 C 117.371094 147.609375 104.375 157.113281 93.03125 170.046875 C 84.386719 183.597656 78.808594 197.082031 78.074219 213.390625 C 77.519531 226.390625 58.761719 226.265625 57.964844 213.390625 C 55.941406 180.347656 36.015625 153.921875 6.097656 140.988281 C -0.828125 137.984375 -0.09375 126.886719 6.097656 123.636719 C 36.136719 107.941406 56.613281 79.496094 60.476562 45.53125 C 61.949219 32.839844 79.789062 32.351562 80.585938 45.53125 C 81.8125 66.746094 90.089844 85.871094 103.453125 100.832031 " fill-opacity="1" fill-rule="nonzero"/><g clip-path="url(#5b7747dcda)"><path fill="#000000" d="M 251.449219 248.949219 C 239.003906 252.320312 229.441406 259.371094 220.980469 268.9375 C 214.605469 278.929688 210.496094 288.859375 209.945312 300.878906 C 209.515625 310.625 195.476562 310.503906 194.863281 300.878906 C 193.390625 276.476562 178.679688 256.917969 156.546875 247.417969 C 151.335938 245.148438 151.886719 236.8125 156.546875 234.421875 C 178.738281 222.832031 193.882812 201.804688 196.761719 176.730469 C 197.867188 167.226562 211.292969 166.859375 211.84375 176.730469 C 213.378906 202.90625 229.5 224.734375 253.226562 235.15625 C 259.417969 237.851562 257.210938 247.417969 251.449219 248.949219 Z M 173.34375 59.140625 C 187.628906 65.273438 197.316406 77.65625 198.296875 93.535156 C 198.910156 103.160156 212.949219 103.285156 213.378906 93.535156 C 213.683594 85.871094 216.382812 79.558594 220.429688 73.183594 C 225.824219 67.050781 231.894531 62.574219 239.863281 60.429688 C 245.625 58.898438 247.832031 49.332031 241.640625 46.636719 C 226.253906 39.890625 215.585938 25.914062 214.605469 8.871094 C 214.050781 -1 200.625 -0.632812 199.523438 8.871094 C 197.683594 25.117188 187.628906 38.605469 173.34375 46.144531 C 168.683594 48.597656 168.132812 56.933594 173.34375 59.140625 Z M 173.34375 59.140625 " fill-opacity="1" fill-rule="nonzero"/></g><path fill="#000000" d="M 99.898438 110.210938 C 102.71875 112.601562 98.609375 116.648438 95.851562 114.257812 C 78.132812 99.054688 70.101562 77.105469 67.40625 54.421875 C 66.976562 50.742188 72.675781 50.804688 73.105469 54.421875 C 75.621094 75.632812 83.34375 95.988281 99.898438 110.210938 Z M 115.164062 122.105469 C 113.507812 121.125 112.160156 120.203125 110.75 118.917969 C 109.585938 117.875 107.808594 117.8125 106.703125 118.917969 C 105.660156 119.960938 105.539062 121.921875 106.703125 122.964844 C 108.417969 124.496094 110.257812 125.90625 112.28125 127.070312 C 113.632812 127.867188 115.410156 127.378906 116.207031 126.027344 C 116.941406 124.679688 116.511719 122.839844 115.164062 122.105469 Z M 58.699219 165.816406 C 51.402344 151.101562 39.328125 139.578125 24.246094 132.957031 C 20.871094 131.484375 17.992188 136.449219 21.363281 137.921875 C 35.648438 144.175781 46.804688 154.78125 53.796875 168.699219 C 55.390625 172.007812 60.292969 169.066406 58.699219 165.816406 Z M 63.605469 176.667969 C 63.359375 175.136719 61.457031 174.277344 60.109375 174.644531 C 58.515625 175.074219 57.839844 176.605469 58.085938 178.140625 C 58.394531 179.980469 58.882812 181.820312 59.621094 183.535156 C 60.230469 184.945312 61.519531 185.988281 63.113281 185.558594 C 64.460938 185.191406 65.6875 183.472656 65.136719 182.0625 C 64.460938 180.285156 63.910156 178.507812 63.605469 176.667969 Z M 222.574219 226.265625 C 213.070312 219.214844 208.535156 203.765625 206.574219 192.792969 C 205.960938 189.175781 200.441406 190.707031 201.054688 194.324219 C 203.324219 207.136719 208.78125 223.140625 219.691406 231.230469 C 222.636719 233.4375 225.515625 228.472656 222.574219 226.265625 Z M 234.957031 234.296875 C 234.160156 233.929688 233.363281 233.5 232.566406 233.132812 C 231.15625 232.457031 229.5 232.765625 228.644531 234.175781 C 227.90625 235.402344 228.277344 237.425781 229.6875 238.097656 C 230.484375 238.464844 231.28125 238.894531 232.078125 239.261719 C 233.488281 239.9375 235.140625 239.632812 236 238.222656 C 236.675781 236.996094 236.308594 234.972656 234.957031 234.296875 Z M 171.628906 240.613281 C 168.316406 239.140625 165.375 244.046875 168.746094 245.578125 C 177.882812 249.625 184.929688 256.367188 189.34375 265.378906 C 190.9375 268.691406 195.90625 265.808594 194.3125 262.5 C 189.53125 252.75 181.558594 245.027344 171.628906 240.613281 Z M 202.527344 274.390625 C 202.097656 272.921875 200.503906 272 199.03125 272.371094 C 197.5625 272.796875 196.640625 274.390625 197.007812 275.863281 C 197.253906 276.785156 197.5 277.640625 197.746094 278.5625 C 198.171875 280.03125 199.769531 280.953125 201.238281 280.585938 C 202.710938 280.15625 203.628906 278.5625 203.261719 277.089844 C 203.015625 276.171875 202.773438 275.25 202.527344 274.390625 Z M 182.847656 54.851562 C 190.328125 56.996094 194.25 66.804688 197.683594 72.9375 C 199.460938 76.125 204.425781 73.242188 202.648438 70.054688 C 198.296875 62.332031 193.699219 52.03125 184.378906 49.332031 C 180.824219 48.292969 179.289062 53.871094 182.847656 54.851562 Z M 201.117188 79.375 C 201.117188 79.925781 201.117188 80.476562 201.117188 80.96875 C 201.117188 82.4375 202.402344 83.910156 203.996094 83.847656 C 205.53125 83.789062 206.878906 82.5625 206.878906 80.96875 C 206.878906 80.417969 206.878906 79.863281 206.878906 79.375 C 206.878906 77.902344 205.59375 76.429688 203.996094 76.492188 C 202.402344 76.613281 201.117188 77.78125 201.117188 79.375 Z M 224.964844 44.183594 C 215.585938 36.828125 210.066406 26.34375 209.636719 14.386719 C 209.515625 10.710938 203.753906 10.710938 203.9375 14.386719 C 204.425781 27.753906 210.433594 39.953125 220.980469 48.230469 C 223.800781 50.5 227.847656 46.453125 224.964844 44.183594 Z M 229.378906 52.828125 C 230.667969 53.441406 231.832031 53.746094 233.242188 53.808594 C 234.710938 53.871094 236.183594 52.460938 236.121094 50.925781 C 236.0625 49.332031 234.835938 48.105469 233.242188 48.046875 C 233.058594 48.046875 232.996094 48.046875 232.933594 48.046875 C 232.875 48.046875 232.8125 48.046875 232.75 47.984375 C 232.691406 47.984375 231.953125 47.679688 232.261719 47.863281 C 230.851562 47.1875 229.195312 47.492188 228.335938 48.902344 C 227.664062 50.191406 227.96875 52.214844 229.378906 52.828125 Z M 229.378906 52.828125 " fill-opacity="1" fill-rule="nonzero"/></g></g></g><path fill="#f7ec34" d="M 199.777344 182.832031 C 201.433594 184.730469 203.210938 186.511719 205.050781 188.226562 M 205.050781 188.226562 C 213.019531 195.828125 222.460938 202.082031 232.945312 206.679688 C 241.222656 210.296875 238.21875 222.988281 230.554688 225.070312 C 213.695312 229.609375 200.695312 239.113281 189.355469 252.046875 C 180.710938 265.597656 175.132812 279.082031 174.394531 295.390625 C 173.84375 308.390625 155.085938 308.265625 154.289062 295.390625 C 152.265625 262.347656 132.339844 235.921875 102.421875 222.988281 C 95.492188 219.984375 96.230469 208.886719 102.421875 205.636719 C 132.460938 189.941406 152.9375 161.496094 156.800781 127.53125 C 158.273438 114.839844 176.113281 114.351562 176.910156 127.53125 C 178.136719 148.746094 186.414062 167.871094 199.777344 182.832031 " fill-opacity="1" fill-rule="nonzero"/><path fill="#f7ec34" d="M 347.773438 330.949219 C 335.328125 334.320312 325.765625 341.371094 317.304688 350.9375 C 310.925781 360.929688 306.820312 370.859375 306.269531 382.878906 C 305.839844 392.625 291.800781 392.503906 291.1875 382.878906 C 289.714844 358.476562 275 338.917969 252.871094 329.417969 C 247.660156 327.148438 248.210938 318.8125 252.871094 316.421875 C 275.0625 304.832031 290.207031 283.804688 293.085938 258.730469 C 294.191406 249.226562 307.617188 248.859375 308.167969 258.730469 C 309.703125 284.90625 325.824219 306.734375 349.550781 317.15625 C 355.742188 319.851562 353.535156 329.417969 347.773438 330.949219 Z M 269.667969 141.140625 C 283.953125 147.273438 293.640625 159.65625 294.621094 175.535156 C 295.234375 185.160156 309.273438 185.285156 309.703125 175.535156 C 310.007812 167.871094 312.707031 161.558594 316.75 155.183594 C 322.148438 149.050781 328.214844 144.574219 336.1875 142.429688 C 341.949219 140.898438 344.15625 131.332031 337.964844 128.636719 C 322.574219 121.890625 311.910156 107.914062 310.925781 90.871094 C 310.375 81 296.949219 81.367188 295.847656 90.871094 C 294.007812 107.117188 283.953125 120.605469 269.667969 128.144531 C 265.007812 130.597656 264.457031 138.933594 269.667969 141.140625 Z M 269.667969 141.140625 " fill-opacity="1" fill-rule="nonzero"/><path fill="#ffffff" d="M 196.222656 192.210938 C 199.042969 194.601562 194.933594 198.648438 192.175781 196.257812 C 174.457031 181.054688 166.425781 159.105469 163.730469 136.421875 C 163.300781 132.742188 169 132.804688 169.429688 136.421875 C 171.945312 157.632812 179.667969 177.988281 196.222656 192.210938 Z M 211.488281 204.105469 C 209.832031 203.125 208.484375 202.203125 207.074219 200.917969 C 205.910156 199.875 204.128906 199.8125 203.027344 200.917969 C 201.984375 201.960938 201.863281 203.921875 203.027344 204.964844 C 204.742188 206.496094 206.582031 207.90625 208.605469 209.070312 C 209.953125 209.867188 211.734375 209.378906 212.53125 208.027344 C 213.265625 206.679688 212.835938 204.839844 211.488281 204.105469 Z M 155.023438 247.816406 C 147.726562 233.101562 135.648438 221.578125 120.570312 214.957031 C 117.195312 213.484375 114.316406 218.449219 117.6875 219.921875 C 131.972656 226.175781 143.128906 236.78125 150.117188 250.699219 C 151.710938 254.007812 156.617188 251.066406 155.023438 247.816406 Z M 159.929688 258.667969 C 159.683594 257.136719 157.78125 256.277344 156.433594 256.644531 C 154.839844 257.074219 154.164062 258.605469 154.410156 260.140625 C 154.714844 261.980469 155.207031 263.820312 155.941406 265.535156 C 156.554688 266.945312 157.84375 267.988281 159.4375 267.558594 C 160.785156 267.191406 162.011719 265.472656 161.460938 264.0625 C 160.785156 262.285156 160.234375 260.507812 159.929688 258.667969 Z M 318.898438 308.265625 C 309.394531 301.214844 304.859375 285.765625 302.894531 274.792969 C 302.285156 271.175781 296.765625 272.707031 297.378906 276.324219 C 299.648438 289.136719 305.101562 305.140625 316.015625 313.230469 C 318.957031 315.4375 321.839844 310.472656 318.898438 308.265625 Z M 331.28125 316.296875 C 330.484375 315.929688 329.6875 315.5 328.890625 315.132812 C 327.480469 314.457031 325.824219 314.765625 324.96875 316.175781 C 324.230469 317.402344 324.597656 319.425781 326.007812 320.097656 C 326.804688 320.464844 327.601562 320.894531 328.398438 321.261719 C 329.808594 321.9375 331.464844 321.632812 332.324219 320.222656 C 333 318.996094 332.628906 316.972656 331.28125 316.296875 Z M 267.953125 322.613281 C 264.640625 321.140625 261.699219 326.046875 265.070312 327.578125 C 274.203125 331.625 281.253906 338.367188 285.667969 347.378906 C 287.261719 350.691406 292.230469 347.808594 290.636719 344.5 C 285.851562 334.75 277.882812 327.027344 267.953125 322.613281 Z M 298.851562 356.390625 C 298.421875 354.921875 296.828125 354 295.355469 354.371094 C 293.882812 354.796875 292.964844 356.390625 293.332031 357.863281 C 293.578125 358.785156 293.824219 359.640625 294.066406 360.5625 C 294.496094 362.03125 296.089844 362.953125 297.5625 362.585938 C 299.035156 362.15625 299.953125 360.5625 299.585938 359.089844 C 299.339844 358.171875 299.09375 357.25 298.851562 356.390625 Z M 279.171875 136.851562 C 286.648438 138.996094 290.574219 148.804688 294.007812 154.9375 C 295.785156 158.125 300.75 155.242188 298.972656 152.054688 C 294.621094 144.332031 290.023438 134.03125 280.703125 131.332031 C 277.148438 130.292969 275.613281 135.871094 279.171875 136.851562 Z M 297.441406 161.375 C 297.441406 161.925781 297.441406 162.476562 297.441406 162.96875 C 297.441406 164.4375 298.726562 165.910156 300.320312 165.847656 C 301.855469 165.789062 303.203125 164.5625 303.203125 162.96875 C 303.203125 162.417969 303.203125 161.863281 303.203125 161.375 C 303.203125 159.902344 301.914062 158.429688 300.320312 158.492188 C 298.726562 158.613281 297.441406 159.78125 297.441406 161.375 Z M 321.289062 126.183594 C 311.910156 118.828125 306.390625 108.34375 305.960938 96.386719 C 305.839844 92.710938 300.078125 92.710938 300.261719 96.386719 C 300.75 109.753906 306.757812 121.953125 317.304688 130.230469 C 320.125 132.5 324.171875 128.453125 321.289062 126.183594 Z M 325.703125 134.828125 C 326.988281 135.441406 328.15625 135.746094 329.566406 135.808594 C 331.035156 135.871094 332.507812 134.460938 332.445312 132.925781 C 332.386719 131.332031 331.160156 130.105469 329.566406 130.046875 C 329.382812 130.046875 329.320312 130.046875 329.257812 130.046875 C 329.195312 130.046875 329.136719 130.046875 329.074219 129.984375 C 329.011719 129.984375 328.277344 129.679688 328.585938 129.863281 C 327.175781 129.1875 325.519531 129.492188 324.660156 130.902344 C 323.984375 132.191406 324.292969 134.214844 325.703125 134.828125 Z M 325.703125 134.828125 " fill-opacity="1" fill-rule="nonzero"/><g mask="url(#1997b9b942)"><g transform="matrix(1, 0, 0, 1, 1100, 419)"><g clip-path="url(#5b75442dec)"><path fill="#000000" d="M 154.539062 100.203125 C 152.882812 102.105469 151.105469 103.882812 149.265625 105.597656 M 149.265625 105.597656 C 141.296875 113.203125 131.855469 119.453125 121.371094 124.050781 C 113.09375 127.667969 116.097656 140.359375 123.761719 142.445312 C 140.621094 146.980469 153.617188 156.484375 164.960938 169.421875 C 173.605469 182.96875 179.183594 196.457031 179.917969 212.765625 C 180.46875 225.761719 199.230469 225.640625 200.027344 212.765625 C 202.050781 179.71875 221.976562 153.296875 251.894531 140.359375 C 258.820312 137.355469 258.085938 126.257812 251.894531 123.011719 C 221.851562 107.316406 201.375 78.867188 197.515625 44.90625 C 196.042969 32.214844 178.203125 31.722656 177.40625 44.90625 C 176.179688 66.117188 167.902344 85.246094 154.539062 100.203125 " fill-opacity="1" fill-rule="nonzero"/><g clip-path="url(#f8bf3372ef)"><path fill="#000000" d="M 6.542969 248.324219 C 18.988281 251.695312 28.550781 258.746094 37.011719 268.308594 C 43.386719 278.300781 47.496094 288.234375 48.046875 300.25 C 48.476562 309.996094 62.515625 309.875 63.128906 300.25 C 64.601562 275.847656 79.3125 256.292969 101.445312 246.789062 C 106.65625 244.519531 106.105469 236.183594 101.445312 233.792969 C 79.253906 222.207031 64.109375 201.175781 61.226562 176.101562 C 60.125 166.601562 46.699219 166.230469 46.144531 176.101562 C 44.613281 202.28125 28.488281 224.105469 4.765625 234.527344 C -1.429688 237.226562 0.777344 246.789062 6.542969 248.324219 Z M 84.648438 58.515625 C 70.363281 64.644531 60.675781 77.03125 59.695312 92.910156 C 59.082031 102.535156 45.042969 102.65625 44.613281 92.910156 C 44.308594 85.246094 41.609375 78.929688 37.5625 72.554688 C 32.167969 66.421875 26.097656 61.949219 18.128906 59.800781 C 12.367188 58.269531 10.160156 48.707031 16.351562 46.007812 C 31.738281 39.265625 42.40625 25.285156 43.386719 8.242188 C 43.9375 -1.628906 57.367188 -1.257812 58.46875 8.242188 C 60.308594 24.488281 70.363281 37.976562 84.648438 45.519531 C 89.304688 47.96875 89.859375 56.308594 84.648438 58.515625 Z M 84.648438 58.515625 " fill-opacity="1" fill-rule="nonzero"/></g><path fill="#000000" d="M 158.09375 109.585938 C 155.273438 111.976562 159.378906 116.019531 162.140625 113.628906 C 179.859375 98.425781 187.890625 76.476562 190.585938 53.792969 C 191.015625 50.117188 185.3125 50.175781 184.882812 53.792969 C 182.371094 75.007812 174.644531 95.359375 158.09375 109.585938 Z M 142.828125 121.476562 C 144.484375 120.496094 145.832031 119.578125 147.242188 118.289062 C 148.40625 117.246094 150.183594 117.1875 151.289062 118.289062 C 152.332031 119.332031 152.453125 121.292969 151.289062 122.335938 C 149.570312 123.867188 147.734375 125.277344 145.710938 126.445312 C 144.359375 127.242188 142.582031 126.75 141.785156 125.402344 C 141.050781 124.050781 141.480469 122.214844 142.828125 121.476562 Z M 199.292969 165.191406 C 206.585938 150.476562 218.664062 138.949219 233.746094 132.328125 C 237.117188 130.859375 240 135.824219 236.628906 137.296875 C 222.34375 143.546875 211.183594 154.15625 204.195312 168.070312 C 202.601562 171.382812 197.699219 168.4375 199.292969 165.191406 Z M 194.386719 176.042969 C 194.632812 174.507812 196.53125 173.648438 197.882812 174.019531 C 199.476562 174.445312 200.148438 175.980469 199.90625 177.511719 C 199.597656 179.351562 199.109375 181.191406 198.371094 182.90625 C 197.757812 184.316406 196.472656 185.359375 194.878906 184.929688 C 193.527344 184.5625 192.304688 182.847656 192.855469 181.4375 C 193.527344 179.660156 194.082031 177.878906 194.386719 176.042969 Z M 35.417969 225.640625 C 44.921875 218.589844 49.457031 203.140625 51.417969 192.164062 C 52.03125 188.546875 57.550781 190.082031 56.9375 193.699219 C 54.667969 206.511719 49.210938 222.511719 38.300781 230.605469 C 35.355469 232.8125 32.476562 227.847656 35.417969 225.640625 Z M 23.035156 233.671875 C 23.832031 233.300781 24.628906 232.871094 25.425781 232.503906 C 26.835938 231.832031 28.488281 232.136719 29.347656 233.546875 C 30.082031 234.773438 29.714844 236.796875 28.304688 237.472656 C 27.507812 237.839844 26.710938 238.269531 25.914062 238.636719 C 24.503906 239.308594 22.847656 239.003906 21.992188 237.59375 C 21.316406 236.367188 21.683594 234.34375 23.035156 233.671875 Z M 86.363281 239.984375 C 89.675781 238.511719 92.617188 243.417969 89.246094 244.949219 C 80.109375 248.996094 73.058594 255.742188 68.644531 264.753906 C 67.050781 268.0625 62.085938 265.183594 63.679688 261.871094 C 68.460938 252.125 76.433594 244.398438 86.363281 239.984375 Z M 55.464844 273.765625 C 55.894531 272.292969 57.488281 271.375 58.960938 271.742188 C 60.429688 272.171875 61.351562 273.765625 60.984375 275.238281 C 60.738281 276.15625 60.492188 277.015625 60.246094 277.933594 C 59.816406 279.40625 58.222656 280.324219 56.753906 279.957031 C 55.28125 279.527344 54.363281 277.933594 54.730469 276.460938 C 54.972656 275.542969 55.21875 274.625 55.464844 273.765625 Z M 75.144531 54.222656 C 67.664062 56.371094 63.742188 66.179688 60.308594 72.308594 C 58.53125 75.496094 53.5625 72.617188 55.34375 69.429688 C 59.695312 61.703125 64.292969 51.402344 73.613281 48.707031 C 77.167969 47.664062 78.699219 53.242188 75.144531 54.222656 Z M 56.875 78.746094 C 56.875 79.296875 56.875 79.851562 56.875 80.339844 C 56.875 81.8125 55.585938 83.285156 53.992188 83.222656 C 52.460938 83.160156 51.113281 81.933594 51.113281 80.339844 C 51.113281 79.789062 51.113281 79.238281 51.113281 78.746094 C 51.113281 77.273438 52.398438 75.804688 53.992188 75.863281 C 55.585938 75.988281 56.875 77.152344 56.875 78.746094 Z M 33.027344 43.554688 C 42.40625 36.199219 47.925781 25.714844 48.351562 13.761719 C 48.476562 10.082031 54.238281 10.082031 54.054688 13.761719 C 53.5625 27.125 47.554688 39.324219 37.011719 47.601562 C 34.191406 49.871094 30.144531 45.824219 33.027344 43.554688 Z M 28.613281 52.199219 C 27.324219 52.8125 26.160156 53.121094 24.75 53.179688 C 23.277344 53.242188 21.808594 51.832031 21.867188 50.300781 C 21.929688 48.707031 23.15625 47.480469 24.75 47.417969 C 24.933594 47.417969 24.996094 47.417969 25.054688 47.417969 C 25.117188 47.417969 25.179688 47.417969 25.242188 47.355469 C 25.300781 47.355469 26.039062 47.050781 25.730469 47.234375 C 27.140625 46.558594 28.796875 46.867188 29.65625 48.277344 C 30.328125 49.5625 30.023438 51.585938 28.613281 52.199219 Z M 28.613281 52.199219 " fill-opacity="1" fill-rule="nonzero"/></g></g></g><path fill="#f7ec34" d="M 1242.539062 517.703125 C 1240.882812 519.605469 1239.105469 521.382812 1237.265625 523.097656 M 1237.265625 523.097656 C 1229.296875 530.703125 1219.855469 536.953125 1209.371094 541.550781 C 1201.09375 545.167969 1204.097656 557.859375 1211.761719 559.945312 C 1228.621094 564.480469 1241.617188 573.984375 1252.960938 586.921875 C 1261.605469 600.46875 1267.183594 613.957031 1267.917969 630.265625 C 1268.46875 643.261719 1287.230469 643.140625 1288.027344 630.265625 C 1290.050781 597.21875 1309.976562 570.796875 1339.894531 557.859375 C 1346.820312 554.855469 1346.085938 543.757812 1339.894531 540.511719 C 1309.851562 524.816406 1289.375 496.367188 1285.515625 462.40625 C 1284.042969 449.714844 1266.203125 449.222656 1265.40625 462.40625 C 1264.179688 483.617188 1255.902344 502.746094 1242.539062 517.703125 " fill-opacity="1" fill-rule="nonzero"/><path fill="#f7ec34" d="M 1094.542969 665.824219 C 1106.988281 669.195312 1116.550781 676.246094 1125.011719 685.808594 C 1131.386719 695.800781 1135.496094 705.734375 1136.046875 717.75 C 1136.476562 727.496094 1150.515625 727.375 1151.128906 717.75 C 1152.601562 693.347656 1167.3125 673.792969 1189.445312 664.289062 C 1194.65625 662.019531 1194.105469 653.683594 1189.445312 651.292969 C 1167.253906 639.707031 1152.109375 618.675781 1149.226562 593.601562 C 1148.125 584.101562 1134.699219 583.730469 1134.144531 593.601562 C 1132.613281 619.78125 1116.488281 641.605469 1092.765625 652.027344 C 1086.570312 654.726562 1088.777344 664.289062 1094.542969 665.824219 Z M 1172.648438 476.015625 C 1158.363281 482.144531 1148.675781 494.53125 1147.695312 510.410156 C 1147.082031 520.035156 1133.042969 520.15625 1132.613281 510.410156 C 1132.308594 502.746094 1129.609375 496.429688 1125.5625 490.054688 C 1120.167969 483.921875 1114.097656 479.449219 1106.128906 477.300781 C 1100.367188 475.769531 1098.160156 466.207031 1104.351562 463.507812 C 1119.738281 456.765625 1130.40625 442.785156 1131.386719 425.742188 C 1131.9375 415.871094 1145.367188 416.242188 1146.46875 425.742188 C 1148.308594 441.988281 1158.363281 455.476562 1172.648438 463.019531 C 1177.304688 465.46875 1177.859375 473.808594 1172.648438 476.015625 Z M 1172.648438 476.015625 " fill-opacity="1" fill-rule="nonzero"/><path fill="#ffffff" d="M 1246.09375 527.085938 C 1243.273438 529.476562 1247.378906 533.519531 1250.140625 531.128906 C 1267.859375 515.925781 1275.890625 493.976562 1278.585938 471.292969 C 1279.015625 467.617188 1273.3125 467.675781 1272.882812 471.292969 C 1270.371094 492.507812 1262.644531 512.859375 1246.09375 527.085938 Z M 1230.828125 538.976562 C 1232.484375 537.996094 1233.832031 537.078125 1235.242188 535.789062 C 1236.40625 534.746094 1238.183594 534.6875 1239.289062 535.789062 C 1240.332031 536.832031 1240.453125 538.792969 1239.289062 539.835938 C 1237.570312 541.367188 1235.734375 542.777344 1233.710938 543.945312 C 1232.359375 544.742188 1230.582031 544.25 1229.785156 542.902344 C 1229.050781 541.550781 1229.480469 539.714844 1230.828125 538.976562 Z M 1287.292969 582.691406 C 1294.585938 567.976562 1306.664062 556.449219 1321.746094 549.828125 C 1325.117188 548.359375 1328 553.324219 1324.628906 554.796875 C 1310.34375 561.046875 1299.183594 571.65625 1292.195312 585.570312 C 1290.601562 588.882812 1285.699219 585.9375 1287.292969 582.691406 Z M 1282.386719 593.542969 C 1282.632812 592.007812 1284.53125 591.148438 1285.882812 591.519531 C 1287.476562 591.945312 1288.148438 593.480469 1287.90625 595.011719 C 1287.597656 596.851562 1287.109375 598.691406 1286.371094 600.40625 C 1285.757812 601.816406 1284.472656 602.859375 1282.878906 602.429688 C 1281.527344 602.0625 1280.304688 600.347656 1280.855469 598.9375 C 1281.527344 597.160156 1282.082031 595.378906 1282.386719 593.542969 Z M 1123.417969 643.140625 C 1132.921875 636.089844 1137.457031 620.640625 1139.417969 609.664062 C 1140.03125 606.046875 1145.550781 607.582031 1144.9375 611.199219 C 1142.667969 624.011719 1137.210938 640.011719 1126.300781 648.105469 C 1123.355469 650.3125 1120.476562 645.347656 1123.417969 643.140625 Z M 1111.035156 651.171875 C 1111.832031 650.800781 1112.628906 650.375 1113.425781 650.003906 C 1114.835938 649.332031 1116.488281 649.636719 1117.347656 651.046875 C 1118.082031 652.273438 1117.714844 654.296875 1116.304688 654.972656 C 1115.507812 655.339844 1114.710938 655.769531 1113.914062 656.136719 C 1112.503906 656.808594 1110.847656 656.503906 1109.992188 655.09375 C 1109.316406 653.867188 1109.683594 651.84375 1111.035156 651.171875 Z M 1174.363281 657.484375 C 1177.675781 656.011719 1180.617188 660.917969 1177.246094 662.449219 C 1168.109375 666.496094 1161.058594 673.242188 1156.644531 682.253906 C 1155.050781 685.5625 1150.085938 682.683594 1151.679688 679.371094 C 1156.460938 669.625 1164.433594 661.898438 1174.363281 657.484375 Z M 1143.464844 691.265625 C 1143.894531 689.792969 1145.488281 688.875 1146.960938 689.242188 C 1148.429688 689.671875 1149.351562 691.265625 1148.984375 692.738281 C 1148.738281 693.65625 1148.492188 694.515625 1148.246094 695.433594 C 1147.816406 696.90625 1146.222656 697.824219 1144.753906 697.457031 C 1143.28125 697.027344 1142.363281 695.433594 1142.730469 693.960938 C 1142.972656 693.042969 1143.21875 692.125 1143.464844 691.265625 Z M 1163.144531 471.722656 C 1155.664062 473.871094 1151.742188 483.679688 1148.308594 489.808594 C 1146.53125 492.996094 1141.5625 490.117188 1143.34375 486.929688 C 1147.695312 479.203125 1152.292969 468.902344 1161.613281 466.207031 C 1165.167969 465.164062 1166.699219 470.742188 1163.144531 471.722656 Z M 1144.875 496.246094 C 1144.875 496.796875 1144.875 497.351562 1144.875 497.839844 C 1144.875 499.3125 1143.585938 500.785156 1141.992188 500.722656 C 1140.460938 500.660156 1139.113281 499.433594 1139.113281 497.839844 C 1139.113281 497.289062 1139.113281 496.738281 1139.113281 496.246094 C 1139.113281 494.773438 1140.398438 493.304688 1141.992188 493.363281 C 1143.585938 493.488281 1144.875 494.652344 1144.875 496.246094 Z M 1121.027344 461.054688 C 1130.40625 453.699219 1135.925781 443.214844 1136.351562 431.261719 C 1136.476562 427.582031 1142.238281 427.582031 1142.054688 431.261719 C 1141.5625 444.625 1135.554688 456.824219 1125.011719 465.101562 C 1122.191406 467.371094 1118.144531 463.324219 1121.027344 461.054688 Z M 1116.613281 469.699219 C 1115.324219 470.3125 1114.160156 470.621094 1112.75 470.679688 C 1111.277344 470.742188 1109.808594 469.332031 1109.867188 467.800781 C 1109.929688 466.207031 1111.15625 464.980469 1112.75 464.917969 C 1112.933594 464.917969 1112.996094 464.917969 1113.054688 464.917969 C 1113.117188 464.917969 1113.179688 464.917969 1113.242188 464.855469 C 1113.300781 464.855469 1114.039062 464.550781 1113.730469 464.734375 C 1115.140625 464.058594 1116.796875 464.367188 1117.65625 465.777344 C 1118.328125 467.0625 1118.023438 469.085938 1116.613281 469.699219 Z M 1116.613281 469.699219 " fill-opacity="1" fill-rule="nonzero"/><g mask="url(#81068355ef)"><g transform="matrix(1, 0, 0, 1, 354, 604)"><g clip-path="url(#937638fc71)"><path fill="#000000" d="M 42.300781 40.742188 C 42.964844 41.507812 43.679688 42.222656 44.417969 42.910156 M 44.417969 42.910156 C 47.617188 45.964844 51.410156 48.476562 55.621094 50.320312 C 58.945312 51.773438 57.738281 56.871094 54.660156 57.707031 C 47.890625 59.53125 42.667969 63.347656 38.113281 68.542969 C 34.644531 73.984375 32.402344 79.398438 32.105469 85.949219 C 31.886719 91.167969 24.351562 91.121094 24.03125 85.949219 C 23.21875 72.679688 15.214844 62.066406 3.199219 56.871094 C 0.417969 55.664062 0.714844 51.207031 3.199219 49.902344 C 15.265625 43.601562 23.488281 32.175781 25.039062 18.535156 C 25.632812 13.4375 32.796875 13.242188 33.117188 18.535156 C 33.609375 27.054688 36.933594 34.734375 42.300781 40.742188 " fill-opacity="1" fill-rule="nonzero"/><g clip-path="url(#6efdcf90c9)"><path fill="#000000" d="M 101.738281 100.230469 C 96.738281 101.582031 92.898438 104.414062 89.5 108.257812 C 86.9375 112.269531 85.289062 116.257812 85.066406 121.085938 C 84.894531 125 79.257812 124.949219 79.011719 121.085938 C 78.421875 111.285156 72.511719 103.429688 63.621094 99.613281 C 61.53125 98.703125 61.75 95.355469 63.621094 94.394531 C 72.535156 89.742188 78.617188 81.296875 79.773438 71.226562 C 80.21875 67.410156 85.609375 67.261719 85.832031 71.226562 C 86.445312 81.738281 92.921875 90.503906 102.449219 94.691406 C 104.9375 95.773438 104.050781 99.613281 101.738281 100.230469 Z M 70.367188 24 C 76.105469 26.464844 79.996094 31.4375 80.390625 37.8125 C 80.636719 41.679688 86.273438 41.726562 86.445312 37.8125 C 86.570312 34.734375 87.652344 32.199219 89.277344 29.640625 C 91.445312 27.175781 93.882812 25.378906 97.082031 24.519531 C 99.398438 23.902344 100.285156 20.0625 97.796875 18.976562 C 91.617188 16.269531 87.332031 10.65625 86.9375 3.8125 C 86.71875 -0.152344 81.324219 -0.00390625 80.882812 3.8125 C 80.144531 10.335938 76.105469 15.753906 70.367188 18.78125 C 68.496094 19.765625 68.277344 23.113281 70.367188 24 Z M 70.367188 24 " fill-opacity="1" fill-rule="nonzero"/></g><path fill="#000000" d="M 40.871094 44.511719 C 42.003906 45.472656 40.355469 47.097656 39.246094 46.136719 C 32.132812 40.03125 28.90625 31.214844 27.824219 22.105469 C 27.652344 20.628906 29.941406 20.652344 30.113281 22.105469 C 31.121094 30.625 34.222656 38.796875 40.871094 44.511719 Z M 47.003906 49.289062 C 46.339844 48.894531 45.796875 48.523438 45.230469 48.007812 C 44.761719 47.589844 44.046875 47.5625 43.605469 48.007812 C 43.1875 48.425781 43.136719 49.214844 43.605469 49.632812 C 44.292969 50.246094 45.035156 50.8125 45.847656 51.28125 C 46.386719 51.601562 47.101562 51.40625 47.421875 50.863281 C 47.71875 50.320312 47.542969 49.582031 47.003906 49.289062 Z M 24.328125 66.84375 C 21.398438 60.933594 16.546875 56.304688 10.488281 53.644531 C 9.136719 53.054688 7.976562 55.050781 9.332031 55.640625 C 15.070312 58.152344 19.550781 62.410156 22.355469 68 C 22.996094 69.328125 24.964844 68.148438 24.328125 66.84375 Z M 26.296875 71.199219 C 26.199219 70.585938 25.433594 70.242188 24.894531 70.386719 C 24.253906 70.558594 23.980469 71.175781 24.082031 71.792969 C 24.203125 72.53125 24.398438 73.269531 24.695312 73.957031 C 24.941406 74.523438 25.460938 74.941406 26.097656 74.769531 C 26.640625 74.625 27.132812 73.933594 26.910156 73.367188 C 26.640625 72.652344 26.417969 71.9375 26.296875 71.199219 Z M 90.140625 91.121094 C 86.324219 88.289062 84.5 82.082031 83.714844 77.675781 C 83.46875 76.222656 81.25 76.839844 81.496094 78.292969 C 82.410156 83.4375 84.601562 89.863281 88.984375 93.113281 C 90.164062 94 91.320312 92.007812 90.140625 91.121094 Z M 95.113281 94.34375 C 94.792969 94.199219 94.472656 94.023438 94.152344 93.878906 C 93.585938 93.605469 92.921875 93.730469 92.578125 94.296875 C 92.28125 94.789062 92.429688 95.601562 92.996094 95.871094 C 93.316406 96.019531 93.636719 96.191406 93.957031 96.339844 C 94.523438 96.609375 95.1875 96.488281 95.53125 95.921875 C 95.804688 95.429688 95.65625 94.617188 95.113281 94.34375 Z M 69.679688 96.882812 C 68.351562 96.289062 67.167969 98.261719 68.523438 98.875 C 72.191406 100.5 75.023438 103.207031 76.796875 106.828125 C 77.433594 108.15625 79.429688 107 78.789062 105.671875 C 76.871094 101.757812 73.667969 98.652344 69.679688 96.882812 Z M 82.089844 110.449219 C 81.917969 109.855469 81.277344 109.488281 80.683594 109.636719 C 80.09375 109.808594 79.726562 110.449219 79.871094 111.039062 C 79.972656 111.40625 80.070312 111.753906 80.167969 112.121094 C 80.339844 112.710938 80.980469 113.082031 81.570312 112.933594 C 82.164062 112.761719 82.53125 112.121094 82.382812 111.53125 C 82.285156 111.160156 82.1875 110.792969 82.089844 110.449219 Z M 74.183594 22.277344 C 77.1875 23.140625 78.765625 27.078125 80.144531 29.539062 C 80.859375 30.820312 82.851562 29.664062 82.136719 28.382812 C 80.390625 25.28125 78.542969 21.144531 74.800781 20.0625 C 73.371094 19.644531 72.757812 21.882812 74.183594 22.277344 Z M 81.523438 32.125 C 81.523438 32.347656 81.523438 32.570312 81.523438 32.765625 C 81.523438 33.355469 82.039062 33.949219 82.679688 33.921875 C 83.296875 33.898438 83.835938 33.40625 83.835938 32.765625 C 83.835938 32.542969 83.835938 32.324219 83.835938 32.125 C 83.835938 31.535156 83.320312 30.945312 82.679688 30.96875 C 82.039062 31.019531 81.523438 31.484375 81.523438 32.125 Z M 91.101562 17.992188 C 87.332031 15.039062 85.117188 10.828125 84.945312 6.027344 C 84.894531 4.550781 82.582031 4.550781 82.65625 6.027344 C 82.851562 11.394531 85.265625 16.292969 89.5 19.617188 C 90.632812 20.527344 92.257812 18.902344 91.101562 17.992188 Z M 92.875 21.464844 C 93.390625 21.710938 93.859375 21.835938 94.425781 21.859375 C 95.015625 21.882812 95.605469 21.316406 95.582031 20.703125 C 95.558594 20.0625 95.066406 19.570312 94.425781 19.542969 C 94.351562 19.542969 94.324219 19.542969 94.300781 19.542969 C 94.277344 19.542969 94.253906 19.542969 94.226562 19.519531 C 94.203125 19.519531 93.90625 19.398438 94.03125 19.46875 C 93.464844 19.199219 92.800781 19.324219 92.453125 19.890625 C 92.183594 20.40625 92.308594 21.21875 92.875 21.464844 Z M 92.875 21.464844 " fill-opacity="1" fill-rule="nonzero"/></g></g></g><g clip-path="url(#3372c9df5d)"><path fill="#f7ec34" d="M 402.054688 644.742188 C 402.71875 645.507812 403.429688 646.222656 404.171875 646.910156 M 404.171875 646.910156 C 407.371094 649.964844 411.164062 652.476562 415.375 654.320312 C 418.695312 655.773438 417.492188 660.871094 414.414062 661.707031 C 407.640625 663.53125 402.421875 667.347656 397.867188 672.542969 C 394.394531 677.984375 392.15625 683.398438 391.859375 689.949219 C 391.636719 695.167969 384.105469 695.121094 383.785156 689.949219 C 382.972656 676.679688 374.96875 666.066406 362.953125 660.871094 C 360.171875 659.664062 360.464844 655.207031 362.953125 653.902344 C 375.019531 647.601562 383.242188 636.175781 384.792969 622.535156 C 385.382812 617.4375 392.550781 617.242188 392.867188 622.535156 C 393.363281 631.054688 396.683594 638.734375 402.054688 644.742188 " fill-opacity="1" fill-rule="nonzero"/></g><path fill="#f7ec34" d="M 461.488281 704.230469 C 456.492188 705.582031 452.648438 708.414062 449.253906 712.257812 C 446.691406 716.269531 445.042969 720.257812 444.820312 725.085938 C 444.648438 729 439.011719 728.949219 438.765625 725.085938 C 438.171875 715.285156 432.261719 707.429688 423.375 703.613281 C 421.28125 702.703125 421.503906 699.355469 423.375 698.394531 C 432.289062 693.742188 438.371094 685.296875 439.527344 675.226562 C 439.96875 671.410156 445.363281 671.261719 445.582031 675.226562 C 446.199219 685.738281 452.675781 694.503906 462.203125 698.691406 C 464.691406 699.773438 463.804688 703.613281 461.488281 704.230469 Z M 430.121094 628 C 435.859375 630.464844 439.75 635.4375 440.140625 641.8125 C 440.390625 645.679688 446.027344 645.726562 446.199219 641.8125 C 446.324219 638.734375 447.40625 636.199219 449.03125 633.640625 C 451.199219 631.175781 453.636719 629.378906 456.835938 628.519531 C 459.152344 627.902344 460.035156 624.0625 457.550781 622.976562 C 451.371094 620.269531 447.085938 614.65625 446.691406 607.8125 C 446.46875 603.847656 441.078125 603.996094 440.636719 607.8125 C 439.894531 614.335938 435.859375 619.753906 430.121094 622.78125 C 428.25 623.765625 428.027344 627.113281 430.121094 628 Z M 430.121094 628 " fill-opacity="1" fill-rule="nonzero"/><path fill="#ffffff" d="M 400.625 648.511719 C 401.757812 649.472656 400.109375 651.097656 399 650.136719 C 391.882812 644.03125 388.660156 635.214844 387.574219 626.105469 C 387.402344 624.628906 389.691406 624.652344 389.863281 626.105469 C 390.875 634.625 393.976562 642.796875 400.625 648.511719 Z M 406.753906 653.289062 C 406.089844 652.894531 405.550781 652.523438 404.984375 652.007812 C 404.515625 651.589844 403.800781 651.5625 403.359375 652.007812 C 402.9375 652.425781 402.890625 653.214844 403.359375 653.632812 C 404.046875 654.246094 404.785156 654.8125 405.597656 655.28125 C 406.140625 655.601562 406.855469 655.40625 407.175781 654.863281 C 407.46875 654.320312 407.296875 653.582031 406.753906 653.289062 Z M 384.078125 670.84375 C 381.148438 664.933594 376.296875 660.304688 370.242188 657.644531 C 368.886719 657.054688 367.730469 659.050781 369.085938 659.640625 C 374.820312 662.152344 379.300781 666.410156 382.109375 672 C 382.75 673.328125 384.71875 672.148438 384.078125 670.84375 Z M 386.046875 675.199219 C 385.949219 674.585938 385.1875 674.242188 384.644531 674.386719 C 384.003906 674.558594 383.734375 675.175781 383.832031 675.792969 C 383.957031 676.53125 384.152344 677.269531 384.449219 677.957031 C 384.695312 678.523438 385.210938 678.941406 385.851562 678.769531 C 386.394531 678.625 386.886719 677.933594 386.664062 677.367188 C 386.394531 676.652344 386.171875 675.9375 386.046875 675.199219 Z M 449.894531 695.121094 C 446.078125 692.289062 444.253906 686.082031 443.464844 681.675781 C 443.21875 680.222656 441.003906 680.839844 441.25 682.292969 C 442.160156 687.4375 444.351562 693.863281 448.734375 697.113281 C 449.917969 698 451.074219 696.007812 449.894531 695.121094 Z M 454.867188 698.34375 C 454.546875 698.199219 454.226562 698.023438 453.90625 697.878906 C 453.339844 697.605469 452.675781 697.730469 452.332031 698.296875 C 452.035156 698.789062 452.183594 699.601562 452.75 699.871094 C 453.070312 700.019531 453.390625 700.191406 453.710938 700.339844 C 454.277344 700.609375 454.941406 700.488281 455.285156 699.921875 C 455.554688 699.429688 455.40625 698.617188 454.867188 698.34375 Z M 429.433594 700.882812 C 428.101562 700.289062 426.921875 702.261719 428.273438 702.875 C 431.945312 704.5 434.773438 707.207031 436.546875 710.828125 C 437.1875 712.15625 439.183594 711 438.542969 709.671875 C 436.621094 705.757812 433.421875 702.652344 429.433594 700.882812 Z M 441.839844 714.449219 C 441.667969 713.855469 441.027344 713.488281 440.4375 713.636719 C 439.847656 713.808594 439.476562 714.449219 439.625 715.039062 C 439.722656 715.40625 439.824219 715.753906 439.921875 716.121094 C 440.09375 716.710938 440.734375 717.082031 441.324219 716.933594 C 441.914062 716.761719 442.285156 716.121094 442.136719 715.53125 C 442.039062 715.160156 441.941406 714.792969 441.839844 714.449219 Z M 433.9375 626.277344 C 436.941406 627.140625 438.515625 631.078125 439.894531 633.539062 C 440.609375 634.820312 442.605469 633.664062 441.890625 632.382812 C 440.140625 629.28125 438.296875 625.144531 434.554688 624.0625 C 433.125 623.644531 432.511719 625.882812 433.9375 626.277344 Z M 441.273438 636.125 C 441.273438 636.347656 441.273438 636.570312 441.273438 636.765625 C 441.273438 637.355469 441.792969 637.949219 442.433594 637.921875 C 443.046875 637.898438 443.589844 637.40625 443.589844 636.765625 C 443.589844 636.542969 443.589844 636.324219 443.589844 636.125 C 443.589844 635.535156 443.074219 634.945312 442.433594 634.96875 C 441.792969 635.019531 441.273438 635.484375 441.273438 636.125 Z M 450.851562 621.992188 C 447.085938 619.039062 444.871094 614.828125 444.699219 610.027344 C 444.648438 608.550781 442.332031 608.550781 442.40625 610.027344 C 442.605469 615.394531 445.019531 620.292969 449.253906 623.617188 C 450.386719 624.527344 452.011719 622.902344 450.851562 621.992188 Z M 452.625 625.464844 C 453.144531 625.710938 453.609375 625.835938 454.175781 625.859375 C 454.769531 625.882812 455.359375 625.316406 455.335938 624.703125 C 455.308594 624.0625 454.816406 623.570312 454.175781 623.542969 C 454.101562 623.542969 454.078125 623.542969 454.054688 623.542969 C 454.027344 623.542969 454.003906 623.542969 453.980469 623.519531 C 453.957031 623.519531 453.660156 623.398438 453.78125 623.46875 C 453.214844 623.199219 452.550781 623.324219 452.207031 623.890625 C 451.9375 624.40625 452.058594 625.21875 452.625 625.464844 Z M 452.625 625.464844 " fill-opacity="1" fill-rule="nonzero"/><g mask="url(#c832b6405f)"><g transform="matrix(1, 0, 0, 1, 955, 82)"><g clip-path="url(#f7a8b9e393)"><path fill="#000000" d="M 51.140625 33.15625 C 50.589844 33.78125 50.003906 34.371094 49.394531 34.9375 M 49.394531 34.9375 C 46.761719 37.449219 43.640625 39.519531 40.175781 41.039062 C 37.441406 42.234375 38.433594 46.429688 40.964844 47.117188 C 46.539062 48.617188 50.835938 51.757812 54.582031 56.03125 C 57.441406 60.511719 59.285156 64.96875 59.527344 70.359375 C 59.710938 74.65625 65.910156 74.617188 66.175781 70.359375 C 66.84375 59.4375 73.429688 50.703125 83.320312 46.429688 C 85.609375 45.433594 85.363281 41.765625 83.320312 40.691406 C 73.390625 35.503906 66.621094 26.101562 65.34375 14.875 C 64.859375 10.683594 58.960938 10.519531 58.699219 14.875 C 58.292969 21.886719 55.554688 28.210938 51.140625 33.15625 " fill-opacity="1" fill-rule="nonzero"/><g clip-path="url(#ebda6c03e9)"><path fill="#000000" d="M 2.222656 82.113281 C 6.335938 83.226562 9.496094 85.558594 12.292969 88.71875 C 14.398438 92.023438 15.757812 95.304688 15.941406 99.277344 C 16.082031 102.5 20.722656 102.457031 20.925781 99.277344 C 21.410156 91.210938 26.273438 84.746094 33.589844 81.605469 C 35.3125 80.855469 35.128906 78.101562 33.589844 77.3125 C 26.253906 73.480469 21.25 66.53125 20.296875 58.242188 C 19.933594 55.101562 15.492188 54.980469 15.3125 58.242188 C 14.804688 66.894531 9.476562 74.109375 1.632812 77.554688 C -0.414062 78.445312 0.316406 81.605469 2.222656 82.113281 Z M 28.039062 19.375 C 23.316406 21.402344 20.113281 25.496094 19.789062 30.742188 C 19.585938 33.925781 14.945312 33.964844 14.804688 30.742188 C 14.703125 28.210938 13.8125 26.125 12.472656 24.015625 C 10.691406 21.988281 8.683594 20.511719 6.050781 19.800781 C 4.144531 19.292969 3.417969 16.132812 5.464844 15.242188 C 10.550781 13.011719 14.074219 8.390625 14.398438 2.757812 C 14.582031 -0.503906 19.019531 -0.382812 19.382812 2.757812 C 19.992188 8.128906 23.316406 12.585938 28.039062 15.078125 C 29.578125 15.890625 29.761719 18.644531 28.039062 19.375 Z M 28.039062 19.375 " fill-opacity="1" fill-rule="nonzero"/></g><path fill="#000000" d="M 52.3125 36.253906 C 51.382812 37.046875 52.738281 38.382812 53.652344 37.59375 C 59.507812 32.566406 62.164062 25.3125 63.054688 17.816406 C 63.195312 16.597656 61.3125 16.617188 61.167969 17.816406 C 60.339844 24.824219 57.785156 31.554688 52.3125 36.253906 Z M 47.269531 40.1875 C 47.816406 39.863281 48.261719 39.558594 48.726562 39.132812 C 49.113281 38.789062 49.699219 38.769531 50.066406 39.132812 C 50.410156 39.476562 50.449219 40.125 50.066406 40.46875 C 49.496094 40.976562 48.890625 41.441406 48.21875 41.828125 C 47.773438 42.089844 47.1875 41.929688 46.921875 41.484375 C 46.679688 41.039062 46.824219 40.429688 47.269531 40.1875 Z M 65.929688 54.636719 C 68.34375 49.769531 72.335938 45.960938 77.320312 43.773438 C 78.433594 43.285156 79.386719 44.929688 78.273438 45.414062 C 73.550781 47.480469 69.863281 50.988281 67.554688 55.585938 C 67.027344 56.679688 65.40625 55.707031 65.929688 54.636719 Z M 64.308594 58.222656 C 64.390625 57.714844 65.019531 57.429688 65.464844 57.554688 C 65.992188 57.695312 66.214844 58.203125 66.132812 58.707031 C 66.03125 59.316406 65.871094 59.925781 65.628906 60.492188 C 65.425781 60.957031 65 61.300781 64.472656 61.160156 C 64.027344 61.039062 63.621094 60.472656 63.804688 60.003906 C 64.027344 59.417969 64.210938 58.828125 64.308594 58.222656 Z M 11.765625 74.617188 C 14.90625 72.285156 16.40625 67.179688 17.054688 63.550781 C 17.257812 62.355469 19.082031 62.863281 18.878906 64.058594 C 18.128906 68.292969 16.324219 73.582031 12.71875 76.257812 C 11.746094 76.988281 10.792969 75.34375 11.765625 74.617188 Z M 7.671875 77.269531 C 7.933594 77.148438 8.199219 77.007812 8.460938 76.886719 C 8.929688 76.664062 9.476562 76.761719 9.757812 77.230469 C 10.003906 77.636719 9.878906 78.304688 9.414062 78.527344 C 9.152344 78.648438 8.886719 78.789062 8.625 78.910156 C 8.160156 79.132812 7.609375 79.03125 7.328125 78.566406 C 7.105469 78.160156 7.226562 77.492188 7.671875 77.269531 Z M 28.605469 79.355469 C 29.699219 78.871094 30.671875 80.492188 29.558594 81 C 26.539062 82.335938 24.207031 84.566406 22.75 87.542969 C 22.222656 88.636719 20.582031 87.6875 21.105469 86.589844 C 22.6875 83.371094 25.320312 80.816406 28.605469 79.355469 Z M 18.390625 90.523438 C 18.535156 90.035156 19.058594 89.734375 19.546875 89.855469 C 20.03125 89.996094 20.335938 90.523438 20.214844 91.007812 C 20.132812 91.3125 20.054688 91.597656 19.972656 91.902344 C 19.832031 92.386719 19.304688 92.691406 18.816406 92.570312 C 18.332031 92.429688 18.027344 91.902344 18.148438 91.414062 C 18.230469 91.109375 18.3125 90.804688 18.390625 90.523438 Z M 24.898438 17.957031 C 22.425781 18.664062 21.128906 21.90625 19.992188 23.933594 C 19.40625 24.988281 17.761719 24.035156 18.351562 22.980469 C 19.789062 20.429688 21.308594 17.023438 24.390625 16.132812 C 25.566406 15.789062 26.070312 17.632812 24.898438 17.957031 Z M 18.859375 26.0625 C 18.859375 26.246094 18.859375 26.425781 18.859375 26.589844 C 18.859375 27.074219 18.433594 27.5625 17.90625 27.542969 C 17.398438 27.519531 16.953125 27.117188 16.953125 26.589844 C 16.953125 26.40625 16.953125 26.222656 16.953125 26.0625 C 16.953125 25.574219 17.378906 25.089844 17.90625 25.109375 C 18.433594 25.148438 18.859375 25.535156 18.859375 26.0625 Z M 10.976562 14.429688 C 14.074219 12 15.898438 8.535156 16.042969 4.582031 C 16.082031 3.367188 17.988281 3.367188 17.925781 4.582031 C 17.761719 9 15.777344 13.03125 12.292969 15.769531 C 11.359375 16.519531 10.023438 15.179688 10.976562 14.429688 Z M 9.515625 17.289062 C 9.089844 17.492188 8.707031 17.59375 8.238281 17.613281 C 7.753906 17.632812 7.265625 17.167969 7.285156 16.660156 C 7.308594 16.132812 7.710938 15.726562 8.238281 15.707031 C 8.300781 15.707031 8.320312 15.707031 8.339844 15.707031 C 8.359375 15.707031 8.382812 15.707031 8.402344 15.6875 C 8.421875 15.6875 8.664062 15.585938 8.5625 15.644531 C 9.03125 15.421875 9.578125 15.523438 9.859375 15.992188 C 10.082031 16.417969 9.980469 17.085938 9.515625 17.289062 Z M 9.515625 17.289062 " fill-opacity="1" fill-rule="nonzero"/></g></g></g><path fill="#f7ec34" d="M 1002.171875 114.660156 C 1001.625 115.289062 1001.039062 115.875 1000.429688 116.441406 M 1000.429688 116.441406 C 997.796875 118.953125 994.675781 121.023438 991.210938 122.542969 C 988.472656 123.738281 989.464844 127.933594 992 128.621094 C 997.574219 130.121094 1001.867188 133.261719 1005.617188 137.539062 C 1008.472656 142.015625 1010.320312 146.472656 1010.5625 151.863281 C 1010.742188 156.160156 1016.945312 156.121094 1017.207031 151.863281 C 1017.878906 140.941406 1024.464844 132.207031 1034.351562 127.933594 C 1036.640625 126.9375 1036.398438 123.269531 1034.351562 122.199219 C 1024.421875 117.007812 1017.652344 107.605469 1016.378906 96.378906 C 1015.890625 92.1875 1009.996094 92.023438 1009.730469 96.378906 C 1009.324219 103.390625 1006.589844 109.714844 1002.171875 114.660156 " fill-opacity="1" fill-rule="nonzero"/><path fill="#f7ec34" d="M 953.253906 163.617188 C 957.367188 164.730469 960.527344 167.0625 963.324219 170.222656 C 965.433594 173.527344 966.789062 176.808594 966.972656 180.78125 C 967.113281 184.003906 971.753906 183.960938 971.957031 180.78125 C 972.445312 172.714844 977.308594 166.25 984.625 163.109375 C 986.347656 162.359375 986.164062 159.605469 984.625 158.816406 C 977.289062 154.984375 972.28125 148.035156 971.328125 139.746094 C 970.964844 136.605469 966.527344 136.484375 966.34375 139.746094 C 965.839844 148.398438 960.507812 155.613281 952.667969 159.058594 C 950.621094 159.949219 951.347656 163.109375 953.253906 163.617188 Z M 979.070312 100.878906 C 974.347656 102.90625 971.148438 107 970.824219 112.246094 C 970.621094 115.429688 965.980469 115.46875 965.839844 112.246094 C 965.738281 109.714844 964.84375 107.628906 963.507812 105.519531 C 961.726562 103.492188 959.71875 102.015625 957.085938 101.304688 C 955.179688 100.796875 954.449219 97.636719 956.496094 96.746094 C 961.582031 94.515625 965.109375 89.894531 965.433594 84.261719 C 965.617188 81 970.054688 81.121094 970.417969 84.261719 C 971.027344 89.632812 974.347656 94.089844 979.070312 96.582031 C 980.609375 97.394531 980.792969 100.148438 979.070312 100.878906 Z M 979.070312 100.878906 " fill-opacity="1" fill-rule="nonzero"/><path fill="#ffffff" d="M 1003.347656 117.757812 C 1002.414062 118.550781 1003.773438 119.886719 1004.683594 119.097656 C 1010.542969 114.070312 1013.195312 106.816406 1014.085938 99.320312 C 1014.230469 98.101562 1012.34375 98.125 1012.203125 99.320312 C 1011.371094 106.332031 1008.820312 113.058594 1003.347656 117.757812 Z M 998.300781 121.691406 C 998.847656 121.367188 999.292969 121.0625 999.761719 120.636719 C 1000.144531 120.292969 1000.734375 120.273438 1001.097656 120.636719 C 1001.441406 120.980469 1001.484375 121.628906 1001.097656 121.972656 C 1000.53125 122.480469 999.921875 122.945312 999.253906 123.332031 C 998.808594 123.59375 998.222656 123.433594 997.957031 122.988281 C 997.714844 122.542969 997.855469 121.933594 998.300781 121.691406 Z M 1016.964844 136.140625 C 1019.375 131.277344 1023.367188 127.464844 1028.355469 125.277344 C 1029.46875 124.792969 1030.421875 126.433594 1029.304688 126.917969 C 1024.585938 128.984375 1020.894531 132.492188 1018.585938 137.089844 C 1018.058594 138.1875 1016.4375 137.214844 1016.964844 136.140625 Z M 1015.34375 139.726562 C 1015.425781 139.21875 1016.054688 138.9375 1016.5 139.058594 C 1017.027344 139.199219 1017.25 139.707031 1017.167969 140.210938 C 1017.066406 140.820312 1016.90625 141.429688 1016.660156 141.996094 C 1016.457031 142.460938 1016.03125 142.804688 1015.507812 142.664062 C 1015.058594 142.542969 1014.65625 141.976562 1014.835938 141.507812 C 1015.058594 140.921875 1015.242188 140.332031 1015.34375 139.726562 Z M 962.796875 156.121094 C 965.941406 153.789062 967.4375 148.683594 968.085938 145.054688 C 968.289062 143.859375 970.113281 144.367188 969.910156 145.5625 C 969.160156 149.796875 967.359375 155.085938 963.75 157.761719 C 962.777344 158.492188 961.824219 156.847656 962.796875 156.121094 Z M 958.707031 158.773438 C 958.96875 158.652344 959.230469 158.511719 959.496094 158.390625 C 959.960938 158.167969 960.507812 158.269531 960.792969 158.734375 C 961.035156 159.140625 960.914062 159.808594 960.449219 160.03125 C 960.183594 160.152344 959.921875 160.292969 959.65625 160.414062 C 959.191406 160.636719 958.644531 160.539062 958.359375 160.070312 C 958.136719 159.664062 958.257812 158.996094 958.707031 158.773438 Z M 979.636719 160.863281 C 980.734375 160.375 981.707031 161.996094 980.589844 162.503906 C 977.570312 163.839844 975.242188 166.070312 973.78125 169.046875 C 973.253906 170.140625 971.613281 169.191406 972.140625 168.097656 C 973.722656 164.875 976.355469 162.320312 979.636719 160.863281 Z M 969.425781 172.027344 C 969.566406 171.539062 970.09375 171.238281 970.582031 171.359375 C 971.066406 171.5 971.371094 172.027344 971.25 172.511719 C 971.167969 172.816406 971.085938 173.101562 971.003906 173.40625 C 970.863281 173.890625 970.335938 174.195312 969.851562 174.074219 C 969.363281 173.933594 969.058594 173.40625 969.183594 172.917969 C 969.261719 172.613281 969.34375 172.3125 969.425781 172.027344 Z M 975.929688 99.460938 C 973.457031 100.171875 972.160156 103.414062 971.027344 105.4375 C 970.4375 106.492188 968.796875 105.539062 969.382812 104.484375 C 970.824219 101.933594 972.34375 98.527344 975.421875 97.636719 C 976.597656 97.292969 977.105469 99.136719 975.929688 99.460938 Z M 969.890625 107.566406 C 969.890625 107.75 969.890625 107.929688 969.890625 108.09375 C 969.890625 108.578125 969.464844 109.066406 968.9375 109.046875 C 968.433594 109.027344 967.988281 108.621094 967.988281 108.09375 C 967.988281 107.910156 967.988281 107.730469 967.988281 107.566406 C 967.988281 107.082031 968.410156 106.59375 968.9375 106.613281 C 969.464844 106.65625 969.890625 107.039062 969.890625 107.566406 Z M 962.007812 95.933594 C 965.109375 93.503906 966.933594 90.039062 967.074219 86.085938 C 967.113281 84.871094 969.019531 84.871094 968.960938 86.085938 C 968.796875 90.503906 966.8125 94.535156 963.324219 97.273438 C 962.394531 98.023438 961.054688 96.683594 962.007812 95.933594 Z M 960.550781 98.792969 C 960.125 98.996094 959.738281 99.097656 959.273438 99.117188 C 958.785156 99.136719 958.300781 98.671875 958.320312 98.164062 C 958.339844 97.636719 958.746094 97.230469 959.273438 97.210938 C 959.332031 97.210938 959.355469 97.210938 959.375 97.210938 C 959.394531 97.210938 959.414062 97.210938 959.433594 97.191406 C 959.457031 97.191406 959.699219 97.089844 959.597656 97.152344 C 960.0625 96.925781 960.609375 97.027344 960.894531 97.496094 C 961.117188 97.921875 961.015625 98.589844 960.550781 98.792969 Z M 960.550781 98.792969 " fill-opacity="1" fill-rule="nonzero"/></svg>